<svg viewBox="0 0 1000 291" version="1.1" xmlns:xlink="http://www.w3.org/1999/xlink" xmlns="http://www.w3.org/2000/svg" data-sanitized-data-name="Layer 1" data-name="Layer 1" id="Layer_1">
  <defs>
    <style>
      .cls-1 {
        clip-path: url(#clippath);
      }

      .cls-2 {
        fill: none;
      }

      .cls-2, .cls-3, .cls-4 {
        stroke-width: 0px;
      }

      .cls-3 {
        fill: url(#linear-gradient);
      }

      .cls-4 {
        fill: #000;
      }
    </style>
    <clipPath id="clippath">
      <rect height="291" width="1000" class="cls-2"></rect>
    </clipPath>
    <linearGradient gradientUnits="userSpaceOnUse" gradientTransform="translate(0 292) scale(1 -1)" y2="93.7" x2="185.2" y1="93.7" x1="501.4" id="linear-gradient">
      <stop stop-opacity="0" stop-color="#000" offset="0"></stop>
      <stop stop-color="#000" offset="1"></stop>
    </linearGradient>
  </defs>
  <g class="cls-1">
    <g>
      <path d="M646.1,291.1h-40.5l-32.2-47v47h-33.3v-111h33.3v44.8l30-44.8h38.8l-38.3,53,42.2,58h0Z" class="cls-4"></path>
      <path d="M746,256.9c0,19.3-15,34.2-48.3,34.2h-43.3v-111h42.7c27.7,0,43.8,11.1,43.8,29.8s-6.1,17.1-13.3,21c11.7,5,18.3,14.4,18.3,26ZM687.7,203.9v20.4h7.8c8.3,0,12.8-3.9,12.8-10s-4.4-10.5-12.8-10.5h-7.8ZM698.8,266.9c8.3,0,13.3-4.4,13.3-10.5s-5-10.5-13.3-10.5h-10.5v21.5l10.5-.5h0Z" class="cls-4"></path>
      <path d="M880.2,180.1h34.9l-35.5,111h-30.5l-18.9-65.7-18.9,65.7h-30l-35.5-111h34.9l17.2,63.5,18.9-63.5h28.3l18.9,63.5,16.1-63.5h0Z" class="cls-4"></path>
      <path d="M36.1,214.9h-11.1l-16.7-19.9v19.9H0v-44.2h8.9v19.3l15.5-19.3h10.5l-17.8,21,18.9,23.2h0Z" class="cls-4"></path>
      <path d="M34.4,198.9c0-10,8.3-16.6,17.2-16.6s17.2,6.6,17.2,16.6-8.3,16.6-17.2,16.6-17.2-6.6-17.2-16.6ZM61,198.9c0-5-3.9-8.8-8.9-8.8s-8.9,3.9-8.9,8.8,3.9,8.8,8.9,8.8,8.9-3.9,8.9-8.8Z" class="cls-4"></path>
      <path d="M94.3,182.3v7.7h-3.9c-4.4,0-7.8,3.3-7.8,8.3v16.6h-8.3v-32h8.3v3.3c2.8-2.7,6.1-3.9,10-3.9h1.7Z" class="cls-4"></path>
      <path d="M128.1,201.6h-24.4c1.1,4.4,3.9,6.6,8.3,6.6s5.6-1.1,7.2-3.9h8.3c-2.2,5.5-7.8,10.5-15.5,10.5s-16.7-6.6-16.7-16.6,8.3-16.6,16.7-16.6,18.3,8.8,16.1,19.9h0ZM103.7,195.6h16.1c-.6-3.9-3.3-6.6-8.3-6.6s-6.7,2.2-7.8,6.6h0Z" class="cls-4"></path>
      <path d="M157.5,182.9h8.3v32h-8.3v-3.3c-2.8,2.7-5.6,3.9-10.6,3.9-8.3,0-16.1-6.6-16.1-16.6s7.8-16.6,16.1-16.6,7.8,1.1,10.6,3.9v-3.3h0ZM157.5,198.9c0-5-3.9-8.8-8.9-8.8s-8.9,3.9-8.9,8.8,3.9,8.8,8.9,8.8,8.9-3.9,8.9-8.8Z" class="cls-4"></path>
      <path d="M31.1,276.2c0,7.7-5.6,13.3-16.1,13.3H0v-44.2h13.9c10,0,15.5,4.4,15.5,11.6s-2.2,7.2-5.6,8.8c4.4,1.1,7.2,5,7.2,10.5h0ZM8.9,252.5v10.5h5c4.4,0,6.7-2.2,6.7-5s-2.2-5-6.7-5l-5-.6ZM15,281.8c5,0,7.2-2.7,7.2-5.5s-2.2-5.5-7.2-5.5h-6.1v11.1h6.1Z" class="cls-4"></path>
      <path d="M36.6,288.9v-45.3h8.3v45.3h-8.3Z" class="cls-4"></path>
      <path d="M50.5,272.9c0-10,8.3-16.6,17.2-16.6s17.2,6.6,17.2,16.6-8.3,16.6-17.2,16.6-17.2-6.1-17.2-16.6ZM76.5,272.9c0-5-3.9-8.8-8.9-8.8s-8.9,3.9-8.9,8.8,3.9,8.8,8.9,8.8,8.9-3.9,8.9-8.8Z" class="cls-4"></path>
      <path d="M87.6,272.9c0-10,8.3-16.6,17.2-16.6s14.4,3.9,16.7,12.2h-8.9c-1.7-3.3-4.4-4.4-7.8-4.4-5,0-8.9,3.9-8.9,8.8s3.9,8.8,8.9,8.8,6.1-1.6,7.8-4.4h8.9c-2.2,8.3-9.4,12.2-16.7,12.2-8.9.5-17.2-6.1-17.2-16.6h0Z" class="cls-4"></path>
      <path d="M156.9,288.9h-10l-12.2-13.8v13.8h-8.3v-45.3h8.3v26.5l11.7-13.3h9.4l-13.9,15.5,15,16.6h0Z" class="cls-4"></path>
      <path d="M155.8,272.9c0-10,8.3-16.6,17.2-16.6s14.4,3.9,16.7,12.2h-8.9c-1.7-3.3-4.4-4.4-7.8-4.4-5,0-8.9,3.9-8.9,8.8s3.9,8.8,8.9,8.8,6.1-1.6,7.8-4.4h8.9c-2.2,8.3-9.4,12.2-16.7,12.2-8.9.5-17.2-6.1-17.2-16.6h0Z" class="cls-4"></path>
      <path d="M224.6,270.2v18.8h-8.3v-17.1c0-4.4-2.2-7.7-6.7-7.7s-7.2,3.3-7.2,7.7v17.1h-8.3v-45.3h8.3v16c2.8-2.7,5.6-3.9,9.4-3.9,7.8.5,12.8,6.6,12.8,14.4Z" class="cls-4"></path>
      <path d="M255.7,256.9h8.3v32h-8.3v-3.3c-2.8,2.7-5.6,3.9-10.6,3.9-8.3,0-16.1-6.6-16.1-16.6s7.8-16.6,16.1-16.6,7.8,1.1,10.6,3.9v-3.3h0ZM255.7,272.9c0-5-3.9-8.8-8.9-8.8s-8.9,3.9-8.9,8.8,3.9,8.8,8.9,8.8,8.9-3.9,8.9-8.8Z" class="cls-4"></path>
      <path d="M270.1,251.9v-7.7h8.9v7.7h-8.9ZM270.7,288.9v-32h8.3v32h-8.3Z" class="cls-4"></path>
      <path d="M316.7,270.2v18.8h-8.3v-17.1c0-4.4-2.2-7.7-6.7-7.7s-7.2,3.3-7.2,7.7v17.1h-8.3v-32h8.3v3.3c2.8-2.7,5.6-3.9,9.4-3.9,7.2,0,12.8,6.1,12.8,13.8Z" class="cls-4"></path>
      <path d="M388.2,245.3h9.4l-14.4,44.2h-7.2l-9.4-30.4-9.4,29.8h-7.2l-14.4-44.2h8.9l8.9,29.3,9.4-29.3h7.2l9.4,29.3,8.9-28.7h0Z" class="cls-4"></path>
      <path d="M429.8,276.2h-24.4c1.1,4.4,3.9,6.6,8.3,6.6s5.6-1.1,7.2-3.9h8.3c-2.2,5.5-7.8,10.5-15.5,10.5s-16.7-6.6-16.7-16.6,8.3-16.6,16.7-16.6,18.3,8.8,16.1,19.9h0ZM405.4,269.6h16.7c-.6-3.9-3.3-6.6-8.3-6.6s-7.2,2.7-8.3,6.6h0Z" class="cls-4"></path>
      <path d="M466.5,276.2h-24.4c1.1,4.4,3.9,6.6,8.3,6.6s5.6-1.1,7.2-3.9h8.3c-2.2,5.5-7.8,10.5-15.5,10.5s-16.7-6.6-16.7-16.6,8.3-16.6,16.7-16.6,18.3,8.8,16.1,19.9h0ZM441.5,269.6h16.1c-.6-3.9-3.3-6.6-8.3-6.6s-6.7,2.7-7.8,6.6h0Z" class="cls-4"></path>
      <path d="M502.5,288.9h-10l-12.2-13.8v13.8h-8.3v-45.3h8.3v26.5l11.7-13.3h9.4l-13.9,15.5,15,16.6h0Z" class="cls-4"></path>
      <path d="M501.4,179.6H185.2v37.6h316.1v-37.6Z" class="cls-3"></path>
      <rect transform="translate(80.7 390.6) rotate(-36.5)" height="4.7" width="217.3" y="70.6" x="523.9" class="cls-4"></rect>
      <rect transform="translate(52.5 330) rotate(-25.9)" height="89" width="4.7" y="6.1" x="742.5" class="cls-4"></rect>
      <rect transform="translate(278.1 621.7) rotate(-59.1)" height="4.7" width="129.4" y="63.1" x="623" class="cls-4"></rect>
      <rect transform="translate(488.6 839.1) rotate(-68.5)" height="279.5" width="4.7" y="-78.7" x="857.6" class="cls-4"></rect>
      <polygon points="967.3 235.3 962.8 234.3 987 120.8 937.6 155.5 934.9 151.7 994.1 110.2 967.3 235.3" class="cls-4"></polygon>
      <path d="M550.2,139.8c0,5.5-4.4,9.4-9.4,9.4s-9.4-4.4-9.4-9.4,4.4-9.4,9.4-9.4,9.4,4.4,9.4,9.4Z" class="cls-4"></path>
      <path d="M974.5,235.4c0,5.5-4.4,9.4-9.4,9.4s-9.4-4.4-9.4-9.4,4.4-9.4,9.4-9.4c5.6-.5,9.4,3.9,9.4,9.4Z" class="cls-4"></path>
      <path d="M1000,113.8c0,5.5-4.4,9.4-9.4,9.4s-9.4-4.4-9.4-9.4,4.4-9.4,9.4-9.4,9.4,4.4,9.4,9.4Z" class="cls-4"></path>
      <path d="M733.8,9.4c0,5.5-4.4,9.4-9.4,9.4s-9.4-4.4-9.4-9.4,4.4-9.4,9.4-9.4,9.4,4.4,9.4,9.4Z" class="cls-4"></path>
    </g>
  </g>
</svg>