<?xml version="1.0" encoding="UTF-8" standalone="no"?>
<!-- Generator: Adobe Illustrator 14.0.0, SVG Export Plug-In . SVG Version: 6.00 Build 43363)  -->

<svg
   xmlns:dc="http://purl.org/dc/elements/1.1/"
   xmlns:cc="http://creativecommons.org/ns#"
   xmlns:rdf="http://www.w3.org/1999/02/22-rdf-syntax-ns#"
   xmlns:svg="http://www.w3.org/2000/svg"
   xmlns="http://www.w3.org/2000/svg"
   xmlns:sodipodi="http://sodipodi.sourceforge.net/DTD/sodipodi-0.dtd"
   xmlns:inkscape="http://www.inkscape.org/namespaces/inkscape"
   version="1.1"
   id="레이어_1"
   x="0px"
   y="0px"
   width="177.22395"
   height="177.22656"
   viewBox="0 0 177.22395 177.22656"
   enable-background="new 0 0 330 200"
   xml:space="preserve"
   sodipodi:docname="Slogan_of_Seoul_Hi_Seoul_Soul_of_Asia.svg"
   inkscape:version="0.92.3 (2405546, 2018-03-11)"><metadata
   id="metadata17"><rdf:RDF><cc:Work
       rdf:about=""><dc:format>image/svg+xml</dc:format><dc:type
         rdf:resource="http://purl.org/dc/dcmitype/StillImage" /><dc:title></dc:title></cc:Work></rdf:RDF></metadata><defs
   id="defs15" /><sodipodi:namedview
   pagecolor="#ffffff"
   bordercolor="#666666"
   borderopacity="1"
   objecttolerance="10"
   gridtolerance="10"
   guidetolerance="10"
   inkscape:pageopacity="0"
   inkscape:pageshadow="2"
   inkscape:window-width="1920"
   inkscape:window-height="1096"
   id="namedview13"
   showgrid="false"
   inkscape:zoom="2.6372727"
   inkscape:cx="208.19723"
   inkscape:cy="137.88547"
   inkscape:window-x="-8"
   inkscape:window-y="-8"
   inkscape:window-maximized="1"
   inkscape:current-layer="레이어_1"
   fit-margin-top="0"
   fit-margin-left="0"
   fit-margin-right="0"
   fit-margin-bottom="0" />

<g
   id="g1442"
   transform="translate(-79.02332,203.98182)"><g
     id="g1396"><g
       id="g1351"><g
         id="g1307"><path
           d="m 256.24728,-115.36789 c 0,48.939455 -39.67058,88.612627 -88.61134,88.612627 -48.93945,0 -88.61262,-39.673172 -88.61262,-88.612627 0,-48.93814 39.67317,-88.61393 88.61262,-88.61393 48.94076,0 88.61134,39.67579 88.61134,88.61393 z"
           style="fill:#b5b4ac;fill-opacity:1;fill-rule:nonzero;stroke:none;stroke-width:1.33333325"
           id="path34"
           inkscape:connector-curvature="0" /><path
           d="m 228.60078,-115.36789 c 0,33.668615 -27.29948,60.965494 -60.96484,60.965494 -33.67057,0 -60.96549,-27.296879 -60.96549,-60.965494 0,-33.66797 27.29492,-60.9642 60.96549,-60.9642 33.66536,0 60.96484,27.29623 60.96484,60.9642 z"
           style="fill:#ffffff;fill-opacity:1;fill-rule:nonzero;stroke:none;stroke-width:1.33333325"
           id="path36"
           inkscape:connector-curvature="0" /><path
           d="m 172.6763,-147.85487 c 0.18426,0.28386 0.42514,0.53386 0.45054,0.81901 0.27017,0.83399 1.0397,1.33008 1.1328,2.18295 0.0319,0.27994 0.40234,0.39192 0.59376,0.51953 0.20702,0.26367 0.0657,0.5638 0.46614,0.95963 0.1862,0.11973 0.0411,0.42318 0.0775,0.70442 0.1836,0.12494 0.38477,0.24806 0.57357,0.37306 1.72071,2.69792 1.88932,5.83333 -0.10933,8.73828 -0.32357,0.31836 -0.62825,0.77474 -0.75977,1.21874 -0.15755,0.15951 -0.49154,0.33204 -0.66015,0.48894 0.0391,0.28646 0.22525,0.4095 0.43489,0.67578 -0.86458,0.22722 -0.96224,0.94856 -1.62434,1.44466 -0.1771,0.0107 -0.52606,0.0456 -0.70314,0.0612 -0.48372,0.47982 -0.99609,0.66666 -1.49869,1.00261 -0.15429,0.15755 -0.112,0.58072 -0.0964,0.72396 -0.82031,0.64777 -2.02148,1.04817 -3.27473,1.02148 -0.17579,0.0176 -0.30535,0.45703 -0.48047,0.47331 -0.88737,0.0865 -1.95769,0.0429 -2.84049,0.12493 -0.3685,-0.11133 -0.57554,-0.37305 -0.94727,-0.48437 -0.35157,0.0357 -0.70183,0.0657 -1.07032,-0.0397 -0.57812,-0.37956 -1.30143,-0.45181 -1.86588,-0.6862 -0.36784,-0.112 -1.03972,0.23828 -1.42383,-0.009 -1.1901,-1.03516 -2.36393,-2.06901 -3.02278,-3.153 -0.43035,-0.67317 -1.17188,-0.89388 -1.42448,-1.58333 -0.03,-0.28451 0.10226,-0.72331 -0.26563,-0.83528 -0.73762,-0.2155 -0.43294,-0.67319 -0.48308,-1.09831 -0.22069,-0.40431 -0.25194,-0.6888 -0.65169,-1.08399 -0.22851,-0.4056 0.0632,-1.00586 -0.17317,-1.55729 -0.012,-0.14063 0.14974,-0.30208 0.13346,-0.44076 -0.27538,-0.83268 0.16471,-1.73307 0.0892,-2.44075 -0.0547,-0.42318 0.0612,-1.00781 0.19076,-1.44857 0.4388,-0.90169 0.85547,-1.94076 1.64453,-2.87565 -0.0156,-0.13867 -0.0456,-0.42058 -0.0592,-0.5625 0.1595,-0.16081 0.33723,-0.17448 0.49414,-0.33594 0.27994,-0.73958 0.5703,-1.33984 1.0345,-1.95312 0.63022,-0.7741 1.62435,-1.44011 2.4323,-2.23307 0.47721,-0.47461 1.1556,-0.82097 1.60156,-1.58464 0.16732,-0.15495 0.72721,0.0795 0.89128,-0.0775 0.4785,-0.47525 1.19856,-0.40038 1.69921,-0.73437 0.49869,-0.33008 0.40039,0.39063 0.91211,0.19988 0.35482,-0.0339 0.51433,-0.18881 0.84896,-0.36849 0.51628,-0.18946 1.09636,0.18358 1.63997,0.27864 0.528,-0.0495 1.07097,0.0436 1.65104,0.41928 0.76953,0.49804 2.53451,0.32942 2.81641,1.30793 0.4323,0.67123 1.19662,1.17579 1.6263,1.84765 z"
           style="fill:#be1135;fill-opacity:1;fill-rule:nonzero;stroke:none;stroke-width:1.33333325"
           id="path38"
           inkscape:connector-curvature="0" /><path
           d="m 202.55457,-136.65695 c -0.0156,-0.44075 0,-0.70963 -0.17448,-1.17839 -0.0501,-0.4388 0.30012,-0.92968 0.14973,-1.53515 -0.10026,-0.16146 -0.32552,-0.35548 -0.29622,-0.49349 0.29622,-0.92579 0.31901,-1.77865 0.24609,-2.79101 -0.0723,-0.3047 -0.17512,-0.46876 -0.27539,-0.63478 0.0208,-0.13606 0.0729,-0.4095 0.12307,-0.68033 0.0253,-0.85091 -0.24936,-1.48047 -0.4974,-2.25 -0.0755,-0.29753 -0.30469,-0.49089 -0.35352,-0.92839 -0.0976,-0.16536 -0.32291,-0.36068 -0.30013,-0.49478 0.22526,-1.23503 -0.37564,-2.22267 -0.55274,-3.39844 -0.27213,-1.34506 -1.54492,-2.19402 -1.94726,-3.56316 0.0176,-0.13607 0.43685,-0.0795 0.56381,-0.0495 0.99479,0.93099 2.09765,2.02408 2.3776,3.36913 0.17252,0.46811 0.0976,0.87631 0.30273,1.20508 0.84115,1.04036 0.99415,2.35482 1.14388,3.67123 -0.0248,0.13932 0.2526,0.0527 0.34766,0.22331 -0.0156,0.1341 -0.0677,0.40689 0.0325,0.57356 0.64843,0.71224 0.25,1.47657 0.375,2.21745 0.0775,0.30469 0.17317,0.46419 0.27343,0.63021 -0.0253,0.13932 -0.34831,0.49804 -0.37564,0.63216 0.52798,0.68555 0.75325,1.58854 0.60481,2.40886 0.60091,0.2806 0.33008,1.06965 0.47071,1.67448 0.10093,0.16601 0.23046,0.194 0.35546,0.21353 0.17318,-0.24023 0.3431,-0.48893 0.39779,-0.76432 0.0755,-1.12369 0.12307,-2.10612 -0.0801,-3.14583 -0.16992,-0.46876 -0.22916,-0.90494 0.10093,-1.26237 -0.25064,-0.0567 -0.33007,-0.35677 -0.42577,-0.52539 -0.45248,-1.806 -0.63478,-3.83333 -1.17123,-5.6849 0,0 0.14519,-0.1048 0.17513,-0.24348 -0.19141,-1.61655 -1.41928,-3.14128 -2.01106,-4.7741 -0.0885,-0.29297 -0.5638,-0.64193 -0.78516,-0.95052 0,0 0.0143,-0.14128 0.03,-0.27994 0.63476,0.086 1.11328,0.69792 1.45182,1.17122 0.65495,0.93424 1.41471,1.972 1.61459,3.01432 0.34765,0.93034 0.86392,1.91016 1.07616,2.82031 0.13607,0.60547 0.57292,1.00065 0.86589,1.50196 0.16211,0.47071 0.082,0.87695 0.12374,1.31901 0.17513,1.04427 0.49609,2.05859 0.69596,3.10026 0.2474,0.76628 0.35417,1.64193 0.10026,2.30208 -0.3457,1.20573 0.44987,2.52214 0.77279,3.58985 0.18033,0.46744 -0.0481,0.98697 -0.24544,1.37109 -0.0208,0.13411 0.19727,0.33008 0.16992,0.46159 -0.22005,0.52408 -0.0429,0.99023 -0.14257,1.53841 -0.14779,0.10867 0.16992,0.46354 0,0.70703 -0.14779,0.114 -0.27084,0.0865 -0.4297,0.19596 -0.19401,0.38412 -0.0189,0.85027 -0.0976,1.26043 -0.40104,0.76626 -0.19141,1.80793 -0.94206,2.35612 -0.27734,0.082 -0.30274,0.22069 -0.45507,0.33006 0.12493,0.0293 0.22785,0.19272 0.32552,0.35678 -0.14779,0.1068 -0.27279,0.0795 -0.42123,0.18945 -0.054,0.27475 0.48047,0.61133 0.58008,0.77084 -0.20442,1.10287 -1.01822,2.05793 -0.9987,3.35025 -0.0449,0.27279 -0.12694,0.68099 -0.16992,0.95704 -0.2526,0.6608 -0.73047,1.12435 -0.98047,1.77995 -0.0411,0.27279 -0.57161,0.30468 -0.62369,0.58203 -0.32358,0.35026 -0.29102,0.92838 -0.52019,1.44921 -0.17123,0.24545 -0.55143,0.16407 -0.85156,0.38217 -0.34571,0.49154 -0.29817,0.93164 -0.51823,1.45116 -0.38021,0.63412 -0.83269,1.30991 -1.20638,1.93751 -0.42514,0.9056 -1.14128,1.77929 -1.91471,2.46419 -0.1276,-0.0253 -0.4004,0.0567 -0.55079,0.16341 -0.39518,0.76953 -0.85481,1.34701 -1.70377,1.72852 -0.1296,-0.0201 -0.31185,0.57096 -0.45899,0.68033 -0.58658,0.4388 -0.92578,0.93099 -1.63346,1.34246 -0.26627,0.086 -0.41406,0.19401 -0.70963,-0.30014 -0.92188,1.64648 -2.16407,2.93424 -3.51303,4.0573 -0.70442,0.4121 -1.41601,0.36653 -1.88281,0.82877 -1.5332,1.51041 -3.96745,3.11133 -4.24935,3.33659 -0.11586,-0.0319 -0.58268,0.66862 -0.58268,0.66862 -0.49544,0.0436 -0.20833,0.0865 -0.67057,-0.0195 0,0 -0.0208,0.775382 -0.64323,0.902342 -1.32032,0.26172 -1.66797,1.79296 -1.76758,2.427733 -0.0527,0.310547 -0.27604,0.09507 -0.43034,0.224614 -0.14322,0.128266 -0.0404,0.3164 -0.19792,0.445306 -0.57356,0.35352 -1.06185,1.05664 -1.54036,1.59896 -0.15169,0.126267 -0.2474,-0.06507 -0.39778,0.06907 -0.1504,0.123067 -0.84766,0.994787 -1.10612,1.756507 -0.59766,1.33724 -1.25262,2.529293 -2.08334,3.47396 -0.19986,0.22916 0.47135,1.118479 0.42123,1.423173 -0.19336,0.420573 -0.57357,0.489586 -0.75717,0.91276 -0.17578,1.048173 -0.22266,2.21224 -0.40104,3.32292 -0.30012,1.080733 0.0749,1.85156 0.2168,2.815746 0.16601,0.814454 -0.0411,1.863294 0,2.6504 0.0592,0.63672 0.49024,1.33268 0.41862,1.949214 0.0248,0.949226 -0.19141,0.821613 0.0136,1.619799 -0.0273,0.463534 -0.18229,0.925774 -0.0755,1.246734 -0.0364,0.620453 -0.13412,1.010426 -0.16863,1.630866 -0.13411,0.147787 -0.40495,0.442707 -0.41405,0.598307 -0.0951,1.557947 -1.11654,2.92968 -2.18555,3.955733 -0.65495,0.42252 -1.22852,1.07356 -1.98828,1.016267 -0.38216,-0.02213 -1.64649,0.7806 -2.07032,0.882813 -1.12109,0.3138 -2.01301,0.320974 -3.08593,0.173187 -1.18295,-0.325533 -2.125,-0.618493 -2.94142,-1.833333 -0.48046,-0.53972 -1.31705,-0.3366 -1.6315,-1.166667 -0.0905,-0.33008 -0.77279,-0.496107 -0.88932,-0.67188 -0.61915,-0.55924 -0.94858,-1.232427 -1.41276,-1.92448 -0.3138,-0.82748 -0.0885,-1.39648 -0.46615,-2.199213 -0.38607,-0.489587 -0.55469,-0.839854 -0.9388,-1.330734 -0.51693,-0.654946 0.11587,-1.596359 -0.26172,-2.245439 -0.26368,-0.173187 -0.52409,-0.500654 -0.64909,-0.820974 -0.24804,-0.63672 -0.18815,-1.565093 -0.57031,-2.242826 -0.20704,-0.811854 -0.0755,-3.746747 0.084,-4.538414 0.0293,-0.160813 -0.42513,-0.38152 -0.403,-0.542973 0.0637,-1.140627 0.45964,-2.248053 0.36849,-3.42188 0.11654,-0.6302 0.0639,-1.139973 0.63476,-1.678386 0,0 -0.27213,-0.218747 -0.24349,-0.3776 0.33269,-0.918614 0.33269,-1.624347 0.51497,-2.582027 0.0287,-0.156253 0.36068,-0.25 0.38803,-0.411467 -0.18164,-0.697906 -0.1862,-2.11588 -0.0657,-2.75064 0.0619,-0.31316 0.8737,-0.78712 1.06706,-1.070973 0.0273,-0.15624 -0.1204,-0.564453 0.1862,-1.112627 0.0781,-0.13412 0.29362,-0.09507 0.45116,-0.222653 0.0221,-0.159507 -0.0795,-0.347653 -0.0508,-0.5026 0.0775,-0.475267 0.87826,-0.820973 0.93815,-1.135427 0.31316,-1.077468 0.85483,-1.526038 1.42188,-2.402338 0.20377,-0.38608 0.2832,-0.79557 0.61784,-1.153 0.14779,-0.1068 0.22591,-0.004 0.24804,-0.14062 0.0248,-0.13672 -0.0456,-0.4414 -0.0221,-0.57292 0.3177,-0.36003 0.7565,-0.68815 0.82748,-1.09896 0.22525,-0.52148 0.41601,-0.9056 0.73306,-1.26432 0.58855,-0.4375 1.17514,-0.87891 1.53646,-1.50391 0.31445,-0.36003 0.68034,-0.27408 1.0013,-0.63281 0.45964,-0.46615 0.58464,-1.15104 0.92839,-1.64454 0.80729,-0.96224 1.68099,-1.61978 2.5612,-2.27733 0.72787,-0.55079 1.6582,-0.76888 2.36588,-1.17969 0.72983,-0.54688 1.16928,-1.5905 1.87696,-2.00195 0.4362,-0.33008 0.94987,-0.35483 1.39192,-0.68555 0.44076,-0.32682 0.80535,-0.95704 1.46224,-1.0957 1.45833,-0.38738 0.41601,0.0248 1.78125,-0.52344 0.85287,-0.51888 0.49544,-0.66342 1.35547,-1.1849 1.41276,-0.82877 2.14713,-1.34961 2.26823,-1.31966 0.14518,-0.11134 0.29166,-0.22006 0.34114,-0.49544 0.3392,-0.49415 2.15431,-1.76367 2.42254,-1.84571 0.26822,-0.0833 0.58398,0.27084 0.89908,-0.0833 0.16993,-0.2461 -0.16862,-0.4694 0,-0.71484 0.46354,-0.46355 0.9069,-1.0944 1.36198,-1.42383 0.14323,-0.1068 0.50066,0.11 0.77344,0.028 0.14779,-0.10813 0.19596,-0.38543 0.34831,-0.48699 0.17512,-0.25 -0.15235,-0.60806 0.0221,-0.85546 0.20247,-0.38476 0.39844,-0.76432 0.67578,-0.84636 0.42513,-0.19596 0.99609,-0.49348 0.92578,-0.79427 0.0957,-0.55013 0.31836,-1.07421 0.8991,-1.37369 0.0201,-0.13478 0.0495,-0.27735 0.0723,-0.40951 0.32096,-0.35743 0.6211,-0.57292 0.95312,-0.93295 0.33855,-0.49284 0.19402,-1.09634 0.39323,-1.48046 0.65104,-0.71224 1.27475,-1.28516 1.44661,-2.24479 -0.0495,-0.4362 -0.32226,-1.07097 -0.1244,-1.45443 0.17514,-0.2448 0.72527,-0.41081 0.77475,-0.681 0.10093,-0.55208 -0.17448,-1.18164 -0.20183,-1.7565 0.0755,-0.41016 0.52083,-0.74024 0.47331,-1.17643 -0.0508,-1.1556 0.0273,-2.27931 -0.15039,-3.45769 0.39583,-0.0527 0.45052,-0.32747 0.4987,-0.60286 -0.1028,-0.8763 -0.60091,-1.69466 -0.82423,-2.60417 -0.0248,-0.57356 0.44401,-1.03971 0.42384,-1.61328 -0.0508,-0.4388 -0.47136,-0.95964 -0.92644,-1.3444 -0.42317,-0.52084 -0.14973,-1.31185 -0.30013,-1.91732 -0.12307,-0.73959 -0.67578,-1.28971 -0.77083,-2.16341 -0.0521,-0.4414 -0.58073,-0.41211 -0.75325,-0.87826 -0.15235,-0.60286 -0.29819,-1.20508 -0.29819,-1.91926 -0.0768,-0.30014 -0.47721,-0.2461 -0.70312,-0.43751 -0.50195,-0.82291 -0.32161,-2.49284 -1.42773,-2.87695 0.0996,-0.54882 -0.39388,-0.6582 -0.57552,-1.12174 0.65038,0 1.25065,0.27344 1.62369,1.0677 0.1048,0.16342 0.47592,0.24479 0.60352,0.27475 0.32683,0.35481 0.29948,1.20507 0.65235,1.42577 0.44792,0.38022 1.12174,0.24415 1.29426,0.70964 0.2526,0.76498 0.82552,1.17904 1.10808,1.8112 -0.03,0.13346 0.0429,0.43359 0.14323,0.60026 0.45443,0.38541 0.5,0.82161 0.82356,1.17838 0.74609,0.8737 1.50325,1.75651 1.1504,2.95964 -0.21811,0.52344 0.45312,0.38216 0.64843,0.70963 0.50781,0.82617 0.30274,1.92188 0.95573,2.63217 -0.12307,1.39843 0.55079,2.69075 0.97787,3.91862 -0.72527,1.1263 -0.32487,3.09374 0.25065,4.21549 0,0 0.39973,-0.0527 0.42968,-0.1888 0.11853,-0.68424 1.36655,-0.91407 1.16472,-1.24219 -0.24805,-0.76888 -0.62565,-2.3724 -0.62565,-3.08268 0.0781,-1.12565 0.12493,-2.11198 -0.0547,-3.29101 -0.0976,-0.16603 -0.19791,-0.32943 -0.29361,-0.49349 -0.15235,-0.60287 -0.30014,-1.20834 -0.17774,-1.89063 -0.0749,-0.30273 -0.30208,-0.49609 -0.375,-0.79167 0.0253,-0.14062 0.0729,-0.41341 0.10027,-0.54817 0.27475,-0.084 0.62371,0.13476 0.86849,0.1914 0.23243,0.19076 0.03,0.57096 0.13214,0.73763 0.39844,0.6595 0.9987,0.9349 1.1237,1.67122 -0.0248,0.13607 -0.0749,0.41147 -0.0951,0.54754 0.0951,0.87629 0.61913,1.56314 0.74609,2.30533 0.0521,0.4362 -0.32097,1.06576 -0.14584,1.53645 0.57097,1.1198 0.59636,2.40691 0.50716,3.66732 -0.10227,0.54819 0.5892,0.98568 0.38868,1.3698 -0.19011,0.38411 0.058,0.4388 -0.14713,0.82291 -0.0253,0.13672 -0.30079,0.21876 -0.32098,0.35483 0.37306,0.79686 -0.19336,1.99934 -0.31836,2.68749 -0.0228,0.13607 0.42514,0.28191 0.51628,-0.21809 0.0567,-0.30795 0.57552,-0.30339 0.84831,-0.38542 0.30469,-0.22266 0.52344,-0.74154 0.49805,-1.31706 m 2.6888,2.73893 c 0.0273,-0.69596 0.35287,-1.20312 0.22787,-1.94271 -0.24545,-0.76888 -0.81445,-0.007 -1.21485,0.0501 0.22721,0.90298 -0.14779,1.5332 -0.42512,2.32226 -0.17123,0.25 -0.29363,0.93555 0.10226,0.87826 0.6302,0.14322 1.29231,-0.45639 1.3099,-1.30795 m -1.06576,3.75391 c 0.1582,-0.21875 0.0879,-0.66016 -0.14648,-0.85352 -0.34311,-0.21614 -0.79363,0.11133 -0.99415,0.49609 -0.19987,0.38412 -0.0521,0.98893 0.47787,0.95769 0.12306,0.0312 0.49089,-0.34766 0.66276,-0.60026 z"
           style="fill:#2e86d0;fill-opacity:1;fill-rule:nonzero;stroke:none;stroke-width:1.33333325"
           id="path40"
           inkscape:connector-curvature="0" /><path
           d="m 196.82996,-153.54171 c 0.66341,0.50194 0.92317,1.34114 1.45508,2.02864 l -0.0573,0.2754 c -0.92317,0.79426 -1.72396,-0.5215 -1.97396,-1.28972 -0.37565,-0.79623 -0.74609,-1.58984 -1.42382,-2.16276 0.0228,-0.13932 0.0481,-0.278 0.0775,-0.41407 -0.32942,-0.35807 -0.74804,-0.87435 -0.32942,-1.06705 0.17448,-0.24544 0.48177,0.24805 0.82748,0.46028 0.52344,0.69076 0.62369,1.5625 1.42448,2.16928 z"
           style="fill:#2e86d0;fill-opacity:1;fill-rule:nonzero;stroke:none;stroke-width:1.33333325"
           id="path42"
           inkscape:connector-curvature="0" /><path
           d="m 200.6099,-157.05865 c 0.0107,0.13868 -0.21354,0.375 -0.24349,0.50912 -0.4362,-0.40038 -0.86719,-0.80469 -1.24869,-1.47656 -0.11974,-0.0377 -0.37044,-0.0996 -0.46484,-0.27018 -0.1224,-0.0345 -0.0924,-0.16602 -0.0605,-0.30208 0.39779,-0.0391 0.70768,0.33202 1.05534,0.56314 0.12106,0.0352 0.27604,-0.0697 0.39778,-0.0377 0.33659,0.23568 0.528,0.57031 0.56446,1.01432 z"
           style="fill:#2e86d0;fill-opacity:1;fill-rule:nonzero;stroke:none;stroke-width:1.33333325"
           id="path44"
           inkscape:connector-curvature="0" /><path
           d="m 144.22384,-131.83599 c 0.11787,0.0951 0.29752,0.2474 0.38932,0.375 0.20248,0.13213 0.41147,0.14778 0.63021,0.0521 0.20183,0.0136 0.39127,0.55077 0.60222,0.5664 0.29622,0.13932 0.48958,0.67317 0.7832,0.93099 0.19726,0.12893 0.40625,0.32032 0.61133,0.45442 0.27995,0.3659 0.46679,0.72527 0.76172,0.97527 0.194,0.25065 0.50976,0.16145 0.71875,0.17839 0.41016,0.14713 0.57552,0.73697 0.86522,1.10286 0.10414,0.009 0.28647,0.3711 0.27931,0.48698 0.19791,0.12893 0.38672,0.37044 0.6914,0.51172 0.0937,0.1276 0.082,0.35221 0.17579,0.47721 0.7526,1.21289 1.74153,1.97917 2.3815,3.29817 0,0 0.082,0.23894 0.0795,0.35352 0.778,0.75522 1.11653,1.81706 1.78776,2.67708 0.18229,0.35743 0.35221,0.94662 0.52084,1.41928 0.19856,0.24804 0.39648,0.3776 0.58268,0.62826 0.28385,0.47916 0.55468,1.08008 0.61848,1.6582 -0.0163,0.22721 -0.16992,0.90494 -0.569,0.52734 -0.48438,-0.5 -0.43164,-1.18034 -0.92774,-1.57161 0.007,-0.112 -0.12493,-0.41212 -0.22526,-0.52735 -0.20052,-0.24218 -0.55729,-0.22786 -0.63672,-0.57422 0.0208,-0.3457 -0.36459,-0.625 -0.55924,-0.86392 -0.49609,-0.71224 -1.21484,-0.97331 -1.81055,-1.69207 -0.10746,-0.004 -0.2168,-0.009 -0.32357,0.0996 -0.11387,0.22265 -0.4388,0.55273 -0.13607,0.91211 0.40495,0.2487 0.59571,0.71614 1.11199,0.96874 0.30208,0.2461 0.3776,0.94011 0.5664,1.52279 0.19531,0.23373 0.39844,0.47267 0.70508,0.60677 0.30533,0.2409 0.18489,0.60483 0.4668,0.97592 -0.005,0.1152 -0.11853,0.21875 -0.1276,0.33398 0.1862,0.36198 0.60546,0.27734 0.89649,0.64649 0.22656,-0.21159 0.53124,-0.0384 0.71615,0.29167 -0.34376,0.3203 -0.25262,0.55468 -0.38478,0.89582 -0.35221,0.53711 0.44596,1.06186 0.94662,1.33204 0.31576,0.028 0.27474,0.60156 0.57161,0.85156 0.17904,0.36198 0.69988,0.4043 0.98243,0.88932 0.0879,0.23438 -0.13027,0.33464 -0.25066,0.55079 -0.0319,0.34504 0.38216,0.49348 0.57552,0.62564 0.19987,0.13147 0.29167,0.36915 0.37826,0.60677 -0.319,0.0865 -0.93555,-0.34114 -1.24935,-0.36522 -0.19401,-0.0899 -0.57096,-0.54428 -0.97331,-0.63152 -0.14192,-0.0312 -0.23437,0.30144 -0.3776,0.27149 -0.19596,-0.0345 -0.39648,-0.0775 -0.60352,-0.11133 -0.22005,-0.0416 -0.74804,-0.62631 -0.97786,-0.66016 -0.26107,-0.0456 -0.57812,0.43425 -0.82943,0.38868 -0.94465,-0.16147 -0.98372,-0.2194 -1.27473,-0.34702 -0.35027,-0.13932 -0.68295,-0.30077 -0.99609,-0.4785 -0.19792,-0.10867 -0.14584,-0.37956 -0.33204,-0.50262 -0.1914,-0.1244 -0.60091,-0.12306 -0.79231,-0.24284 -0.75456,-0.45768 -1.4668,-1.50389 -2.11068,-1.83593 -0.42057,-0.22071 -0.778,-0.43749 -1.24869,-0.66471 -0.23112,-0.14518 -0.39324,-0.46158 -0.68035,-0.55925 -0.88932,-0.29817 -1.59635,-0.85937 -2.60416,-1.14192 -1.90821,-0.54101 -3.49871,0.55273 -5.05013,1.35807 -0.0847,-0.005 -0.24806,-0.0163 -0.33464,0.0411 -0.35416,0.3021 -0.77995,0.47071 -1.13086,0.70508 -0.47917,0.38216 -1.14778,0.48178 -1.68554,0.79623 -0.16732,0.0996 -0.18555,0.40691 -0.34702,0.50781 -0.25976,0.14714 -0.70768,0.17708 -0.95572,0.33464 -0.22266,0.14192 -0.25716,0.4108 -0.4733,0.57227 -0.44792,0.35937 -0.88478,0.65299 -1.48503,0.93749 -0.34571,0.17318 -3.20704,0.66407 -3.68555,0.67058 -0.73893,0.0136 -1.24805,0.62044 -2.34961,0.61653 -1.67383,-0.009 -3.34831,-0.0411 -4.74024,-1.07617 -0.28905,-0.25651 -0.34569,-0.94987 -0.54621,-1.08268 -0.59767,-0.39127 -0.54103,-1.18946 -0.70704,-1.77799 -0.20052,-0.1328 -0.61719,-0.16407 -0.58984,-0.51043 0.22786,-1.70768 1.07226,-3.25064 2.10937,-4.42838 0.23828,-0.44335 0.77539,-0.63086 0.82096,-1.20116 0,0 0.93295,-1.30535 1.48959,-1.83399 0.12493,-0.22005 -0.0585,-0.58204 0.0644,-0.80079 0.85286,-1.65754 2.40625,-2.79752 3.66406,-4.30338 0.33724,-0.3164 0.57943,-0.75716 1.10547,-0.83072 0.21615,0.0143 0.41667,0.0325 0.53907,-0.18555 0.25064,-0.55535 0.694,-0.86524 1.02148,-1.06967 1.21484,-0.82292 2.23177,-2.0677 3.61002,-2.29492 0.21615,-0.10226 0.33854,-0.31641 0.55078,-0.41928 0.23373,-0.21093 0.62761,0.0528 0.84376,-0.0449 1.02733,-0.46419 1.96744,-1.46028 3.02344,-1.60351 0.21549,-0.0931 0.33658,-0.31641 0.43814,-0.30925 0.93686,0.0795 2.04558,-0.75129 2.92383,0.12893 0.79297,-0.16536 1.97787,0 2.48112,0.43099 m 7.17708,10.03972 c 0.001,-0.1152 0.004,-0.22916 0.0133,-0.34309 -0.41406,-0.25262 -0.59114,-0.94923 -1.10937,-1.08724 -0.10547,-0.004 -0.31707,0.10026 -0.32552,0.21353 -0.0221,0.68945 0.27083,1.16276 0.55989,1.74675 0.1224,-0.44987 0.43164,-0.43424 0.63476,-0.0853 0.10414,-0.10546 0.21615,-0.32878 0.22722,-0.44466 z"
           style="fill:#359a3e;fill-opacity:1;fill-rule:nonzero;stroke:none;stroke-width:1.33333325"
           id="path46"
           inkscape:connector-curvature="0" /><path
           d="m 103.78373,-81.717502 c 0.89844,-0.529946 1.74024,-0.618493 2.53842,-0.259106 0.79688,0.35416 1.5039,1.06184 2.13216,2.114573 0.1224,0.20704 0.23112,0.41928 0.32942,0.638027 0.0931,0.218093 0.18424,0.4362 0.27019,0.654946 0.0755,0.224614 0.14908,0.444014 0.21875,0.663414 0.0664,0.2168 0.12306,0.423826 0.17253,0.619133 l -1.33204,0.791667 c -0.0189,-0.1256 -0.0371,-0.279294 -0.0671,-0.466787 -0.0248,-0.185547 -0.0696,-0.399747 -0.13346,-0.64324 -0.0664,-0.241533 -0.153,-0.5026 -0.26628,-0.784493 -0.11134,-0.28256 -0.25716,-0.579427 -0.44791,-0.894534 -0.13607,-0.231773 -0.29167,-0.44532 -0.46224,-0.640626 -0.17709,-0.19596 -0.36589,-0.34636 -0.58008,-0.45964 -0.19532,-0.104134 -0.41407,-0.159507 -0.64128,-0.164054 -0.23437,-0.0027 -0.47071,0.07093 -0.71875,0.220694 -0.24544,0.14128 -0.41862,0.312506 -0.5345,0.50716 -0.114,0.195973 -0.18424,0.403 -0.20899,0.621093 -0.0371,0.222667 -0.0436,0.45248 -0.0228,0.6862 0.0228,0.23568 0.0391,0.467453 0.0501,0.694667 0.0411,0.369133 0.0749,0.76628 0.1016,1.1914 0.0273,0.425133 0.0208,0.84896 -0.0196,1.266933 -0.0391,0.4056 -0.14388,0.7832 -0.30468,1.132813 -0.16406,0.348307 -0.42838,0.6302 -0.79428,0.846347 -0.81054,0.485026 -1.57877,0.562506 -2.30208,0.235026 -0.71874,-0.33008 -1.34505,-0.932293 -1.869784,-1.8112 -0.1204,-0.208973 -0.225266,-0.427733 -0.32292,-0.657546 -0.100266,-0.224613 -0.18424,-0.45312 -0.26172,-0.677733 -0.0644,-0.218094 -0.124933,-0.43164 -0.186853,-0.63672 -0.05853,-0.207027 -0.113333,-0.38932 -0.166667,-0.550134 l 1.342454,-0.798173 c 0.01627,0.29232 0.0912,0.68164 0.220706,1.164067 0.1328,0.484373 0.33984,0.996093 0.625654,1.532546 0.25064,0.423173 0.55012,0.7168 0.89127,0.882813 0.34896,0.16472 0.70117,0.138667 1.0677,-0.0768 0.17448,-0.1048 0.30014,-0.230466 0.38152,-0.378253 0.0807,-0.147133 0.13214,-0.313146 0.15755,-0.49804 0.0248,-0.1836 0.0319,-0.38216 0.0208,-0.591146 -0.012,-0.211587 -0.0255,-0.432294 -0.0397,-0.659507 l -0.1204,-1.192053 c 0.008,-0.272787 0,-0.566414 -0.0156,-0.882814 -0.0196,-0.313813 -0.003,-0.630213 0.0384,-0.94792 0.0619,-0.317053 0.18424,-0.628253 0.37304,-0.9362 0.18685,-0.3086 0.48242,-0.593746 0.88737,-0.856773 z"
           style="fill:#231f20;fill-opacity:1;fill-rule:nonzero;stroke:none;stroke-width:1.33333325"
           id="path48"
           inkscape:connector-curvature="0" /><path
           d="m 102.42827,-91.891981 2.35677,5.618493 -9.595054,4.02344 -2.300133,-5.484374 1.2806,-0.536466 1.682947,4.014333 2.6556,-1.111987 -1.61784,-3.858066 1.2858,-0.536467 1.614586,3.85612 3.093094,-1.296867 -1.73763,-4.149746 z"
           style="fill:#231f20;fill-opacity:1;fill-rule:nonzero;stroke:none;stroke-width:1.33333325"
           id="path50"
           inkscape:connector-curvature="0" /><path
           d="m 94.137253,-102.52479 c 0.702467,-0.16992 1.38932,-0.24284 2.065107,-0.2181 0.67512,0.0253 1.303386,0.16146 1.867186,0.40951 0.569,0.25976 1.062494,0.64648 1.485027,1.1582 0.423827,0.51367 0.737627,1.177732 0.936187,1.991532 0.1836,0.760427 0.20899,1.460947 0.084,2.102213 -0.1276,0.642587 -0.3802,1.212894 -0.753254,1.708987 -0.375653,0.500653 -0.855466,0.923173 -1.447266,1.275387 -0.591147,0.35092 -1.257814,0.619146 -1.996747,0.79884 -0.684893,0.1634 -1.36784,0.225253 -2.043613,0.18228 -0.673173,-0.04293 -1.295573,-0.199867 -1.871093,-0.468747 -0.569014,-0.268227 -1.067054,-0.656893 -1.485027,-1.164707 -0.423827,-0.50716 -0.72396,-1.142586 -0.910813,-1.901693 -0.186187,-0.760427 -0.213534,-1.45768 -0.08787,-2.09896 0.128933,-0.641933 0.381507,-1.210293 0.75716,-1.710942 0.37304,-0.4987 0.852867,-0.92122 1.432933,-1.27148 0.582694,-0.34831 1.23308,-0.61523 1.968107,-0.79232 m 0.35872,1.53776 c -0.527347,0.1276 -1.012373,0.3125 -1.45312,0.556 -0.441413,0.24088 -0.809893,0.529289 -1.10612,0.867822 -0.2832,0.3392 -0.488933,0.72592 -0.604827,1.160813 -0.116533,0.4362 -0.114,0.916667 0.01827,1.440107 0.111333,0.468093 0.31184,0.87044 0.602853,1.203773 0.28712,0.328774 0.639334,0.583987 1.04884,0.763667 0.42512,0.184253 0.88476,0.291027 1.39648,0.31576 0.50716,0.02533 1.041667,-0.03187 1.60156,-0.168613 0.525387,-0.123734 1.01432,-0.30664 1.462893,-0.53776 0.447267,-0.234387 0.827467,-0.522147 1.135414,-0.863294 0.30208,-0.343093 0.515626,-0.73176 0.640626,-1.171213 0.124934,-0.436853 0.124934,-0.923187 -0.0027,-1.457693 -0.126267,-0.51692 -0.335947,-0.942707 -0.62956,-1.276679 -0.293627,-0.3366 -0.659507,-0.5892 -1.08464,-0.76433 -0.421227,-0.16602 -0.889974,-0.2526 -1.406254,-0.26107 -0.51888,-0.009 -1.060546,0.0567 -1.619786,0.19271 z"
           style="fill:#231f20;fill-opacity:1;fill-rule:nonzero;stroke:none;stroke-width:1.33333325"
           id="path52"
           inkscape:connector-curvature="0" /><path
           d="m 94.357307,-114.49158 c 0.423173,-0.0273 0.873693,0 1.356119,0.084 0.48632,0.082 0.940747,0.25456 1.365227,0.51693 0.427093,0.26042 0.781907,0.62956 1.08204,1.10678 0.295573,0.48046 0.470693,1.097 0.523427,1.85937 0.05213,0.77995 -0.0364,1.42577 -0.259107,1.93749 -0.227867,0.51434 -0.528653,0.91928 -0.903,1.2142 -0.38932,0.30795 -0.814453,0.52604 -1.2832,0.66016 -0.47136,0.13411 -0.927733,0.21419 -1.369147,0.2461 l -6.470039,0.43618 -0.1068,-1.61848 6.438146,-0.43294 c 0.335933,-0.0228 0.664067,-0.0749 0.982427,-0.1543 0.319,-0.0795 0.602213,-0.20964 0.852866,-0.39128 0.24804,-0.18033 0.4414,-0.41666 0.582027,-0.70573 0.138667,-0.29101 0.19596,-0.65755 0.166667,-1.09831 -0.03,-0.42382 -0.130267,-0.77344 -0.302734,-1.04622 -0.173173,-0.27539 -0.39584,-0.48958 -0.66928,-0.64452 -0.272133,-0.15431 -0.57356,-0.25912 -0.904293,-0.30926 -0.334627,-0.0501 -0.669267,-0.0632 -1.006506,-0.0411 l -6.434894,0.43489 -0.109333,-1.61523 6.4694,-0.4388 z"
           style="fill:#231f20;fill-opacity:1;fill-rule:nonzero;stroke:none;stroke-width:1.33333325"
           id="path54"
           inkscape:connector-curvature="0" /><path
           d="m 98.857306,-125.10097 -0.512373,6.25782 -10.338546,-0.8444 0.1296,-1.60156 8.955733,0.73308 0.37956,-4.65886 1.386066,0.11387 z"
           style="fill:#231f20;fill-opacity:1;fill-rule:nonzero;stroke:none;stroke-width:1.33333325"
           id="path56"
           inkscape:connector-curvature="0" /><path
           d="m 104.17892,-143.86985 -0.50651,1.38543 -7.59961,-2.76433 -0.0093,0.028 6.67188,5.32032 -0.49804,1.37369 -8.529959,-0.22071 -0.0136,0.0416 7.602209,2.76303 -0.5026,1.38801 -9.761063,-3.55273 0.744134,-2.05273 8.816409,0.26432 0.0201,-0.0527 -6.942046,-5.43359 0.748053,-2.03841 9.760413,3.55077 z"
           style="fill:#231f20;fill-opacity:1;fill-rule:nonzero;stroke:none;stroke-width:1.33333325"
           id="path58"
           inkscape:connector-curvature="0" /><path
           d="m 109.08647,-152.79822 -3.02083,5.29427 -9.035814,-5.15756 2.94596,-5.16406 1.207694,0.6875 -2.158214,3.78516 2.500004,1.42578 2.07422,-3.63281 1.20572,0.68749 -2.0703,3.63282 2.91666,1.66276 2.22722,-3.90755 z"
           style="fill:#231f20;fill-opacity:1;fill-rule:nonzero;stroke:none;stroke-width:1.33333325"
           id="path60"
           inkscape:connector-curvature="0" /><path
           d="m 107.77007,-166.14654 -1.77084,2.30925 7.16341,5.49284 -0.96875,1.26302 -7.16341,-5.49284 -1.75131,2.28516 -1.08984,-0.83919 4.48828,-5.85221 z"
           style="fill:#231f20;fill-opacity:1;fill-rule:nonzero;stroke:none;stroke-width:1.33333325"
           id="path62"
           inkscape:connector-curvature="0" /><path
           d="m 121.99337,-167.85031 -1.16928,1.14193 -1.6927,-1.13541 c -0.52279,-0.33855 -1.01692,-0.56576 -1.48307,-0.67514 -0.4642,-0.11133 -0.88541,-0.0892 -1.25587,0.0703 -0.0547,0.0684 -0.11333,0.1328 -0.17512,0.19336 -0.0612,0.0592 -0.12493,0.12107 -0.1862,0.18229 l -0.60092,0.5853 -0.96874,-0.99284 0.58658,-0.57552 c 0.20052,-0.19792 0.38216,-0.40235 0.54363,-0.61784 0.15755,-0.2168 0.26432,-0.44207 0.32356,-0.67188 0.0709,-0.23243 0.0749,-0.47071 0.008,-0.71615 -0.0677,-0.24804 -0.22265,-0.49869 -0.47071,-0.7526 -0.22265,-0.22787 -0.45962,-0.36849 -0.70768,-0.42383 -0.24804,-0.0547 -0.49348,-0.0411 -0.74088,0.0384 -0.24544,0.0671 -0.49153,0.17578 -0.7259,0.33463 -0.23634,0.15691 -0.45248,0.33204 -0.65496,0.5306 l -0.86067,0.83659 6.30859,6.46094 -1.11719,1.08919 -7.27864,-7.44987 1.98567,-1.94205 c 0.3457,-0.33985 0.71876,-0.63933 1.12826,-0.90887 0.40234,-0.26757 0.819,-0.45377 1.24154,-0.55858 0.43554,-0.10934 0.86913,-0.10934 1.31054,0.007 0.44336,0.11267 0.87566,0.38607 1.29883,0.82358 0.48243,0.49022 0.76172,0.98437 0.84375,1.48306 0.0795,0.5 0.0456,0.98178 -0.1204,1.45052 0.36393,-0.0156 0.76432,0.0253 1.21028,0.12307 0.44857,0.0951 0.88217,0.29296 1.3099,0.59375 l 2.10938,1.4759 z"
           style="fill:#231f20;fill-opacity:1;fill-rule:nonzero;stroke:none;stroke-width:1.33333325"
           id="path64"
           inkscape:connector-curvature="0" /><path
           d="m 128.93283,-179.45057 c 0.41405,0.59375 0.73046,1.20963 0.95833,1.84896 0.21809,0.63672 0.31315,1.26692 0.28905,1.88542 -0.0371,0.62565 -0.21158,1.22525 -0.5397,1.80598 -0.32748,0.58074 -0.83008,1.11068 -1.52148,1.58984 -0.63934,0.44662 -1.2806,0.72852 -1.92514,0.84246 -0.64322,0.11333 -1.26628,0.0859 -1.86653,-0.0827 -0.60092,-0.16992 -1.16993,-0.46615 -1.7116,-0.88672 -0.54101,-0.42317 -1.02995,-0.94336 -1.47135,-1.57161 -0.39778,-0.57552 -0.70248,-1.18816 -0.90494,-1.83399 -0.20248,-0.64519 -0.28451,-1.28516 -0.23894,-1.91472 0.0384,-0.62825 0.22266,-1.23372 0.54167,-1.80859 0.32031,-0.57748 0.80077,-1.0892 1.44401,-1.53581 0.64127,-0.44791 1.2832,-0.72981 1.92448,-0.84375 0.64583,-0.11333 1.26692,-0.0847 1.86784,0.084 0.60026,0.16862 1.16927,0.46028 1.70572,0.87435 0.53711,0.41536 1.01888,0.92969 1.44858,1.54688 m -1.30535,0.89127 c -0.30468,-0.444 -0.65233,-0.82616 -1.03645,-1.15299 -0.38738,-0.32357 -0.79427,-0.56251 -1.21484,-0.71484 -0.41928,-0.14324 -0.85092,-0.19076 -1.30144,-0.14063 -0.44856,0.0468 -0.89388,0.22526 -1.33528,0.53451 -0.39388,0.27473 -0.69858,0.60937 -0.90104,1.00064 -0.20704,0.38672 -0.31186,0.80795 -0.33399,1.25391 -0.0143,0.46094 0.0521,0.93229 0.21353,1.41406 0.16147,0.48178 0.40756,0.96094 0.73634,1.43555 0.31054,0.44336 0.65365,0.83008 1.0332,1.16732 0.38216,0.33203 0.78516,0.57943 1.2168,0.73893 0.42513,0.16146 0.86849,0.22071 1.32226,0.17968 0.45248,-0.0411 0.90755,-0.21809 1.35743,-0.53189 0.43749,-0.30469 0.7552,-0.65365 0.96028,-1.05079 0.20899,-0.39713 0.31185,-0.82552 0.31836,-1.29036 10e-4,-0.44986 -0.084,-0.91666 -0.26107,-1.403 -0.18229,-0.48502 -0.4414,-0.96484 -0.77409,-1.4401 z"
           style="fill:#231f20;fill-opacity:1;fill-rule:nonzero;stroke:none;stroke-width:1.33333325"
           id="path66"
           inkscape:connector-curvature="0" /><path
           d="m 137.9478,-186.32297 c 0.26432,0.5547 0.38216,1.06706 0.34309,1.53516 -0.0377,0.46615 -0.17252,0.88998 -0.39322,1.26432 -0.22462,0.38542 -0.52019,0.7194 -0.89323,1.00651 -0.37175,0.28647 -0.75587,0.52475 -1.15365,0.71615 l -0.76888,0.37109 -0.61654,-1.27929 0.75587,-0.36328 c 0.24479,-0.11654 0.4746,-0.2526 0.69531,-0.41146 0.21614,-0.16016 0.39322,-0.34114 0.528,-0.54688 0.1276,-0.20833 0.1979,-0.4427 0.21418,-0.70508 0.0221,-0.26172 -0.0456,-0.55273 -0.20052,-0.87369 -0.13672,-0.28776 -0.32161,-0.49609 -0.5397,-0.6224 -0.22462,-0.13027 -0.46355,-0.20508 -0.72267,-0.23177 -0.26367,-0.0235 -0.53905,0.004 -0.8164,0.0703 -0.27539,0.0703 -0.53907,0.16536 -0.79167,0.28646 l -1.08138,0.51822 3.9043,8.12566 -1.40821,0.67773 -4.50911,-9.37695 2.5026,-1.20248 c 0.4362,-0.20964 0.88932,-0.37304 1.36003,-0.49413 0.47527,-0.1204 0.93033,-0.15691 1.36979,-0.11133 0.45052,0.0495 0.86849,0.20246 1.25521,0.45768 0.38281,0.25196 0.70508,0.65038 0.9668,1.18945 z"
           style="fill:#231f20;fill-opacity:1;fill-rule:nonzero;stroke:none;stroke-width:1.33333325"
           id="path68"
           inkscape:connector-curvature="0" /><path
           d="m 151.06433,-188.39327 c 0.20248,0.694 0.3086,1.37825 0.31771,2.05598 0.008,0.67643 -0.0996,1.30404 -0.31771,1.87956 -0.23242,0.58268 -0.59374,1.09635 -1.08528,1.54231 -0.49609,0.44532 -1.14388,0.78972 -1.94726,1.0254 -0.75066,0.22069 -1.44598,0.2832 -2.09702,0.18684 -0.64192,-0.0951 -1.22396,-0.32031 -1.74022,-0.67121 -0.51954,-0.34962 -0.96224,-0.81186 -1.3444,-1.38347 -0.37762,-0.57227 -0.6797,-1.22591 -0.89128,-1.95573 -0.20118,-0.67578 -0.29623,-1.35091 -0.2806,-2.02864 0.0137,-0.67839 0.13412,-1.30795 0.37825,-1.89063 0.23828,-0.58464 0.60221,-1.09831 1.0918,-1.54427 0.48568,-0.44662 1.10743,-0.778 1.85547,-0.9987 0.7513,-0.22135 1.44726,-0.28255 2.09374,-0.18684 0.64519,0.0983 1.23047,0.32096 1.7435,0.67121 0.51693,0.35027 0.96289,0.80795 1.33854,1.3724 0.37695,0.5612 0.67058,1.20248 0.88476,1.92579 m -1.51562,0.43228 c -0.15495,-0.52083 -0.36198,-0.99414 -0.62566,-1.42383 -0.26301,-0.43293 -0.57096,-0.78451 -0.92121,-1.06445 -0.35157,-0.26888 -0.74609,-0.45052 -1.18945,-0.54818 -0.44142,-0.0957 -0.91863,-0.0657 -1.43751,0.0859 -0.46355,0.13737 -0.85025,0.35548 -1.16927,0.66016 -0.31901,0.30469 -0.55273,0.66863 -0.71614,1.08464 -0.16407,0.43229 -0.2435,0.90039 -0.25066,1.40755 0,0.51041 0.0847,1.04297 0.24806,1.59701 0.15038,0.51627 0.35481,0.99739 0.60937,1.43359 0.25716,0.43685 0.56055,0.80078 0.91471,1.0892 0.35546,0.2871 0.75781,0.48306 1.20117,0.58658 0.44336,0.10814 0.92839,0.082 1.45768,-0.0723 0.50781,-0.14975 0.92188,-0.38022 1.24219,-0.69142 0.32032,-0.30989 0.55989,-0.68424 0.71224,-1.12174 0.14778,-0.42512 0.21158,-0.89583 0.19336,-1.41406 -0.0156,-0.51628 -0.1068,-1.05534 -0.26888,-1.60873 z"
           style="fill:#231f20;fill-opacity:1;fill-rule:nonzero;stroke:none;stroke-width:1.33333325"
           id="path70"
           inkscape:connector-curvature="0" /><path
           d="m 162.19584,-184.79627 -6.22266,0.82748 -1.3724,-10.28451 1.59051,-0.21095 1.18489,8.9056 4.63607,-0.61653 z"
           style="fill:#231f20;fill-opacity:1;fill-rule:nonzero;stroke:none;stroke-width:1.33333325"
           id="path72"
           inkscape:connector-curvature="0" /><path
           d="m 166.88009,-184.88286 -1.63477,0.0352 -0.24154,-10.39844 1.63347,-0.0404 0.24284,10.40365 z"
           style="fill:#231f20;fill-opacity:1;fill-rule:nonzero;stroke:none;stroke-width:1.33333325"
           id="path74"
           inkscape:connector-curvature="0" /><path
           d="m 178.28308,-193.24094 -2.89974,-0.25391 -0.79362,8.99415 -1.58594,-0.14193 0.79623,-8.99348 -2.87044,-0.25262 0.1204,-1.37238 7.35156,0.65364 -0.11853,1.36653 z"
           style="fill:#231f20;fill-opacity:1;fill-rule:nonzero;stroke:none;stroke-width:1.33333325"
           id="path76"
           inkscape:connector-curvature="0" /><path
           d="m 188.1698,-181.95838 -1.70183,-0.40365 -0.32096,-3.21679 -3.51627,-0.83985 -1.80665,2.70638 -1.55989,-0.3724 6.03256,-9.25585 1.64453,0.39323 1.22851,10.98893 m -2.16406,-5.08399 -0.26953,-4.27604 -0.058,-0.0107 -2.28776,3.66405 2.61524,0.62305 z"
           style="fill:#231f20;fill-opacity:1;fill-rule:nonzero;stroke:none;stroke-width:1.33333325"
           id="path78"
           inkscape:connector-curvature="0" /><path
           d="m 197.77526,-178.10226 -1.72134,-0.71875 -0.59896,-8.95573 -0.0495,-0.0228 -3.10287,7.40625 -1.4121,-0.59114 4.01692,-9.59702 1.76042,0.73699 0.55012,8.98568 0.0429,0.0176 3.11914,-7.44923 1.41471,0.59115 -4.01953,9.59701 z"
           style="fill:#231f20;fill-opacity:1;fill-rule:nonzero;stroke:none;stroke-width:1.33333325"
           id="path80"
           inkscape:connector-curvature="0" /><path
           d="m 217.72253,-173.55018 -1.29167,-1.00325 c 0.23828,-0.3073 0.39388,-0.5918 0.47071,-0.86459 0.0755,-0.27083 0.0892,-0.52344 0.0384,-0.75781 -0.0573,-0.23828 -0.15885,-0.45963 -0.30208,-0.6569 -0.14584,-0.19857 -0.31381,-0.37956 -0.50716,-0.54166 -0.34832,-0.27019 -0.73308,-0.45508 -1.14715,-0.55274 -0.41405,-0.0931 -0.83658,-0.0931 -1.26236,0 -0.4362,0.0885 -0.86654,0.27279 -1.28906,0.55924 -0.42123,0.27995 -0.81967,0.66471 -1.19922,1.153 -0.20508,0.26692 -0.42318,0.61263 -0.64128,1.04036 -0.2233,0.42514 -0.36849,0.88672 -0.4388,1.38542 -0.0657,0.49544 -0.0163,1.00781 0.1543,1.53776 0.16601,0.52734 0.54361,1.028 1.13476,1.49609 0.23437,0.18489 0.4733,0.34115 0.71224,0.47396 0.24089,0.13147 0.48046,0.23828 0.72526,0.31576 l 1.70183,-2.19271 -1.96095,-1.52669 0.86915,-1.12109 3.22331,2.5039 -3.10938,4 -0.30989,-0.16666 c -0.13997,-0.0391 -0.30664,-0.082 -0.49609,-0.13147 -0.18816,-0.0488 -0.39975,-0.12373 -0.64063,-0.22331 -0.24155,-0.10026 -0.50521,-0.23632 -0.79232,-0.40429 -0.29363,-0.17057 -0.60483,-0.38932 -0.94792,-0.6556 -0.67383,-0.52148 -1.14648,-1.097 -1.42643,-1.72396 -0.28646,-0.62825 -0.42057,-1.26953 -0.41666,-1.92252 0.0183,-0.66147 0.1556,-1.31251 0.41014,-1.94988 0.25716,-0.63671 0.59571,-1.22525 1.01694,-1.76692 0.41601,-0.53191 0.88866,-0.98763 1.41926,-1.35808 0.53647,-0.37304 1.11199,-0.62564 1.73112,-0.7578 0.60027,-0.12893 1.22592,-0.12493 1.87631,0.0136 0.65104,0.13932 1.28971,0.45508 1.92448,0.94401 0.37956,0.29558 0.69596,0.63282 0.95508,1.01042 0.2552,0.3776 0.43033,0.77734 0.51692,1.19857 0.0813,0.42317 0.0768,0.85741 -0.03,1.30793 -0.10413,0.45052 -0.32683,0.89584 -0.67123,1.3379 z"
           style="fill:#231f20;fill-opacity:1;fill-rule:nonzero;stroke:none;stroke-width:1.33333325"
           id="path82"
           inkscape:connector-curvature="0" /><path
           d="m 225.92305,-162.24223 c -0.52995,0.48828 -1.10285,0.8841 -1.70768,1.18749 -0.60612,0.30208 -1.2168,0.47917 -1.83399,0.53385 -0.62369,0.0456 -1.23697,-0.0573 -1.85806,-0.30273 -0.61719,-0.24804 -1.21094,-0.67968 -1.77475,-1.29883 -0.52604,-0.57942 -0.88671,-1.17838 -1.08463,-1.80338 -0.19597,-0.62304 -0.24805,-1.24479 -0.15756,-1.86132 0.0885,-0.61655 0.31251,-1.22136 0.6556,-1.81316 0.34831,-0.59115 0.8073,-1.14388 1.36915,-1.6582 0.52344,-0.472 1.08724,-0.85222 1.70183,-1.13932 0.61392,-0.28386 1.23241,-0.44792 1.86457,-0.48634 0.63281,-0.0416 1.25196,0.0612 1.8698,0.30599 0.61003,0.24415 1.18359,0.65365 1.70833,1.23112 0.52279,0.57748 0.88542,1.17904 1.08594,1.80273 0.1927,0.6224 0.24804,1.24284 0.15169,1.86003 -0.0865,0.61784 -0.30208,1.21876 -0.64128,1.80404 -0.34115,0.58724 -0.79167,1.12956 -1.34896,1.63803 m -1.05077,-1.17448 c 0.40038,-0.3659 0.73762,-0.75912 1.00781,-1.1823 0.27279,-0.42578 0.45508,-0.85872 0.55273,-1.29688 0.0885,-0.43229 0.0768,-0.86913 -0.0293,-1.30858 -0.1028,-0.43686 -0.3392,-0.85743 -0.70313,-1.25522 -0.32356,-0.35741 -0.69662,-0.61002 -1.10872,-0.76172 -0.4082,-0.15298 -0.83855,-0.20962 -1.28451,-0.16861 -0.45899,0.0411 -0.91863,0.17057 -1.37175,0.39127 -0.46418,0.2207 -0.90494,0.52734 -1.33268,0.91862 -0.40104,0.36263 -0.73958,0.75522 -1.02409,1.17643 -0.27929,0.41863 -0.47265,0.85287 -0.57747,1.29819 -0.10026,0.44661 -0.10026,0.89257 -0.001,1.33528 0.0996,0.44661 0.33204,0.87174 0.70183,1.27929 0.36002,0.39324 0.74674,0.66407 1.16797,0.81641 0.41601,0.1543 0.85741,0.20247 1.3164,0.14714 0.45052,-0.0515 0.90104,-0.20183 1.35872,-0.44271 0.45639,-0.24089 0.903,-0.55795 1.32813,-0.94661 z"
           style="fill:#231f20;fill-opacity:1;fill-rule:nonzero;stroke:none;stroke-width:1.33333325"
           id="path84"
           inkscape:connector-curvature="0" /><path
           d="m 236.99857,-155.08469 -10.70703,2.60808 -0.94336,-1.45898 6.7487,-8.7168 0.93034,1.43554 -5.56641,6.89714 0.0723,0.0892 8.56054,-2.25131 z"
           style="fill:#231f20;fill-opacity:1;fill-rule:nonzero;stroke:none;stroke-width:1.33333325"
           id="path86"
           inkscape:connector-curvature="0" /><path
           d="m 232.07214,-141.32491 -2.5319,-5.54038 9.4655,-4.3203 2.46744,5.40689 -1.26301,0.57813 -1.80795,-3.96224 -2.62044,1.19662 1.73828,3.80273 -1.26693,0.57747 -1.73828,-3.80338 -3.05013,1.39452 1.86914,4.09442 z"
           style="fill:#231f20;fill-opacity:1;fill-rule:nonzero;stroke:none;stroke-width:1.33333325"
           id="path88"
           inkscape:connector-curvature="0" /><path
           d="m 235.22253,-131.27023 -0.45703,-1.57162 1.80339,-0.95768 c 0.54557,-0.29817 0.97787,-0.6276 1.29883,-0.98502 0.31576,-0.36003 0.48958,-0.73959 0.52538,-1.13998 -0.0293,-0.0813 -0.0639,-0.16341 -0.084,-0.2474 -0.0273,-0.082 -0.0481,-0.16601 -0.0729,-0.24804 l -0.23437,-0.80794 1.33333,-0.38672 0.22916,0.79166 c 0.0775,0.27084 0.17513,0.52604 0.28907,0.76823 0.1204,0.24415 0.26366,0.44467 0.4388,0.60547 0.17057,0.17122 0.38021,0.28516 0.62825,0.34376 0.24805,0.0599 0.54297,0.0391 0.88476,-0.0612 0.30795,-0.0872 0.54167,-0.22722 0.70769,-0.42058 0.16602,-0.19401 0.27343,-0.41862 0.31836,-0.67448 0.0585,-0.24674 0.0729,-0.51302 0.0475,-0.79492 -0.0248,-0.28516 -0.0768,-0.56054 -0.15885,-0.82813 l -0.33203,-1.1556 -8.67188,2.51108 -0.4362,-1.49871 10.01107,-2.89844 0.77084,2.66863 c 0.13476,0.46353 0.22005,0.93749 0.26822,1.42123 0.0436,0.48502 0.012,0.93749 -0.0976,1.36066 -0.10413,0.43164 -0.31316,0.81642 -0.62109,1.1504 -0.3112,0.33724 -0.75716,0.58984 -1.34245,0.75782 -0.6543,0.19074 -1.22331,0.20442 -1.70508,0.0429 -0.47787,-0.16341 -0.88476,-0.42708 -1.222,-0.79101 -0.15886,0.32486 -0.38412,0.6621 -0.68164,1.00977 -0.29363,0.34569 -0.67383,0.63671 -1.13542,0.87369 l -2.30209,1.16211 z"
           style="fill:#231f20;fill-opacity:1;fill-rule:nonzero;stroke:none;stroke-width:1.33333325"
           id="path90"
           inkscape:connector-curvature="0" /><path
           d="m 236.84884,-120.41737 -0.23047,-1.85417 7.47787,-4.96093 -0.004,-0.0585 -7.97136,0.98438 -0.18815,-1.52214 10.32421,-1.27344 0.23503,1.89518 -7.52733,4.93816 0.007,0.0429 8.01107,-0.98763 0.1888,1.52214 -10.32227,1.27409 z"
           style="fill:#231f20;fill-opacity:1;fill-rule:nonzero;stroke:none;stroke-width:1.33333325"
           id="path92"
           inkscape:connector-curvature="0" /><path
           d="m 236.50574,-106.48247 0.0885,-1.47396 8.07032,0.47982 0.004,-0.0267 -7.91342,-3.19662 0.0865,-1.45769 8.23697,-2.22265 v -0.0436 l -8.07487,-0.47918 0.0905,-1.47265 10.37044,0.61653 -0.13147,2.1797 -8.52604,2.26301 v 0.0573 l 8.20052,3.22527 -0.1296,2.16796 -10.37239,-0.61653 z"
           style="fill:#231f20;fill-opacity:1;fill-rule:nonzero;stroke:none;stroke-width:1.33333325"
           id="path94"
           inkscape:connector-curvature="0" /><path
           d="m 234.34168,-96.526088 1.38997,-5.932292 10.12956,2.36784 -1.35092,5.792319 -1.35351,-0.316414 0.99154,-4.24024 -2.80274,-0.655586 -0.95313,4.071613 -1.35285,-0.31576 0.94986,-4.074213 -3.27018,-0.763679 -1.01954,4.382812 z"
           style="fill:#231f20;fill-opacity:1;fill-rule:nonzero;stroke:none;stroke-width:1.33333325"
           id="path96"
           inkscape:connector-curvature="0" /><path
           d="m 230.52462,-86.270888 0.70116,-1.73112 8.94858,-0.71288 0.0201,-0.054 -7.45183,-3.005213 0.57812,-1.421227 9.64454,3.891933 -0.71224,1.769533 -8.97787,0.671227 -0.0143,0.0404 7.48828,3.020827 -0.57486,1.421226 -9.64974,-3.890626 z"
           style="fill:#231f20;fill-opacity:1;fill-rule:nonzero;stroke:none;stroke-width:1.33333325"
           id="path98"
           inkscape:connector-curvature="0" /><path
           d="m 233.16394,-72.638729 1.47787,-2.504546 -7.77019,-4.595707 0.80795,-1.368493 7.77539,4.595053 1.46418,-2.479813 1.18295,0.70052 -3.75585,6.35156 z"
           style="fill:#231f20;fill-opacity:1;fill-rule:nonzero;stroke:none;stroke-width:1.33333325"
           id="path100"
           inkscape:connector-curvature="0" /><path
           d="m 117.29611,-62.650435 c 0,1.089186 -0.88282,1.971999 -1.97462,1.971999 -1.08984,0 -1.972,-0.882813 -1.972,-1.971999 0,-1.089854 0.88216,-1.974614 1.972,-1.974614 1.0918,0 1.97462,0.88476 1.97462,1.974614 z"
           style="fill:#231f20;fill-opacity:1;fill-rule:nonzero;stroke:none;stroke-width:1.33333325"
           id="path102"
           inkscape:connector-curvature="0" /><path
           d="m 222.02397,-62.650435 c 0,1.089186 -0.87956,1.971999 -1.9694,1.971999 -1.0918,0 -1.97657,-0.882813 -1.97657,-1.971999 0,-1.089854 0.88477,-1.974614 1.97657,-1.974614 1.08984,0 1.9694,0.88476 1.9694,1.974614 z"
           style="fill:#231f20;fill-opacity:1;fill-rule:nonzero;stroke:none;stroke-width:1.33333325"
           id="path104"
           inkscape:connector-curvature="0" /><path
           d="m 133.23491,-46.961636 -1.61524,0.49544 -1.30338,-4.355466 c -0.74154,0.45508 -1.5013,0.772133 -2.2793,0.944 -0.77279,0.175133 -1.49935,0.26628 -2.17252,0.270186 l -0.36328,-1.687493 c 0.71614,0.03187 1.37565,-0.03 1.98112,-0.184253 0.60221,-0.152987 1.14582,-0.364574 1.62565,-0.63672 0.48241,-0.270827 0.90104,-0.58984 1.25585,-0.95116 0.35547,-0.366547 0.64844,-0.755214 0.87631,-1.165374 l 1.08919,-1.962893 1.56966,0.871747 -0.93489,1.680986 c -0.17969,0.32748 -0.37565,0.62956 -0.58269,0.9056 -0.21094,0.274747 -0.42512,0.534507 -0.64583,0.778 l 1.49935,4.9974 m 0.57292,6.62564 -1.48503,-0.82552 4.17187,-7.511066 -3.09831,-1.722 0.79363,-1.428387 3.0983,1.7194 2.11784,-3.8112 1.48503,0.82488 z"
           style="fill:#231f20;fill-opacity:1;fill-rule:nonzero;stroke:none;stroke-width:1.33333325"
           id="path106"
           inkscape:connector-curvature="0" /><path
           d="m 155.05848,-40.407609 -5.88672,-1.51952 -0.20052,0.774733 2.92121,0.753253 -0.93945,3.64648 -5.63476,-1.453773 -0.18229,0.698573 6.00781,1.550774 -0.40951,1.583986 -7.71353,-1.990226 0.97591,-3.78776 5.62109,1.449213 0.15885,-0.621747 -5.69596,-1.4694 0.39323,-1.522133 2.83919,0.733067 0.20052,-0.77408 -5.75976,-1.486987 0.40038,-1.553387 13.30664,3.431654 -0.40233,1.55728 m -1.81707,-5.803387 c -0.11386,0.44532 -0.31445,0.82748 -0.60156,1.144533 -0.2858,0.317707 -0.625,0.57032 -1.01366,0.75716 -0.39779,0.172534 -0.83986,0.274747 -1.32878,0.302094 -0.48438,0.02733 -0.99414,-0.02413 -1.52149,-0.160814 -0.49609,-0.1276 -0.94661,-0.314453 -1.35416,-0.562493 -0.40431,-0.250653 -0.74349,-0.548187 -1.01888,-0.894533 -0.26563,-0.345054 -0.44532,-0.722654 -0.54363,-1.140627 -0.0931,-0.416667 -0.084,-0.85808 0.0365,-1.324213 0.1204,-0.4642 0.3229,-0.861987 0.60806,-1.192067 0.2832,-0.329426 0.62435,-0.58724 1.02539,-0.77148 0.39128,-0.186853 0.82813,-0.292973 1.31055,-0.324866 0.48242,-0.02933 0.98048,0.0228 1.4987,0.156893 0.5052,0.130267 0.96679,0.32552 1.38086,0.58724 0.40885,0.260413 0.74805,0.567707 1.01041,0.923173 0.26368,0.34376 0.44532,0.73048 0.54297,1.158213 0.10027,0.42968 0.0885,0.875654 -0.0312,1.341787 m -1.70181,-0.457027 c 0.12493,-0.487626 0.0293,-0.91732 -0.29363,-1.298826 -0.3203,-0.380214 -0.75065,-0.64192 -1.2871,-0.7806 -0.5599,-0.143227 -1.06511,-0.130267 -1.51303,0.04947 -0.45052,0.175786 -0.73503,0.514973 -0.86197,1.010413 -0.12374,0.475266 -0.0345,0.89584 0.27538,1.264973 0.3086,0.365893 0.7409,0.618493 1.30079,0.764333 0.53841,0.138667 1.03451,0.134107 1.49219,-0.012 0.45964,-0.147133 0.75325,-0.479173 0.88737,-0.9974 z"
           style="fill:#231f20;fill-opacity:1;fill-rule:nonzero;stroke:none;stroke-width:1.33333325"
           id="path108"
           inkscape:connector-curvature="0" /><path
           d="m 172.91069,-38.857476 h -13.72331 v -1.619133 h 13.72331 v 1.619133 m -2.98177,5.875653 h -1.7155 v -3.343746 h -6.13997 v -1.635427 h 7.85547 v 4.979173 m -0.03,-8.329426 h -7.76107 v -6.315107 h 7.6634 v 1.6198 h -5.96484 v 0.689453 h 5.77344 v 1.633454 h -5.77344 v 0.755213 h 6.06251 z"
           style="fill:#231f20;fill-opacity:1;fill-rule:nonzero;stroke:none;stroke-width:1.33333325"
           id="path110"
           inkscape:connector-curvature="0" /><path
           d="m 183.73881,-42.315156 -6.39063,1.320307 -1.34634,-6.533854 1.66276,-0.343093 0.38932,1.88412 3.04557,-0.630867 -0.38672,-1.881506 1.67904,-0.347013 1.347,6.531906 m -2.00716,-1.238933 -0.30469,-1.47656 -3.04558,0.628253 0.3047,1.47656 3.04557,-0.628253 m 8.28516,7.784506 -7.7116,1.58984 -0.81184,-3.940106 5.60481,-1.15624 -0.16861,-0.81576 -5.68425,1.173173 -0.32747,-1.58724 7.41276,-1.529293 0.81184,3.942706 -5.57225,1.14844 0.16861,0.817054 5.94987,-1.228507 0.32813,1.585933 m -1.27865,-6.824213 -1.64908,0.338533 -0.31382,-1.522133 -2.70052,0.557293 -0.3229,-1.569013 2.70052,-0.557947 -0.23439,-1.128253 -2.69987,0.554693 -0.32812,-1.58464 2.70052,-0.557293 -0.45508,-2.216146 1.6491,-0.338534 z"
           style="fill:#231f20;fill-opacity:1;fill-rule:nonzero;stroke:none;stroke-width:1.33333325"
           id="path112"
           inkscape:connector-curvature="0" /><path
           d="m 201.99337,-46.932343 -0.55795,1.592454 -4.27213,-1.553387 c -0.056,0.87304 -0.24935,1.673827 -0.56641,2.402333 -0.32226,0.727214 -0.6888,1.369147 -1.10286,1.92384 l -1.57813,-0.707693 c 0.44727,-0.591147 0.78907,-1.178387 1.02279,-1.753253 0.23502,-0.57812 0.38672,-1.135414 0.45964,-1.67448 0.0592,-0.545574 0.0481,-1.062494 -0.0319,-1.553387 -0.0775,-0.496093 -0.21615,-0.952466 -0.41145,-1.380853 l -0.95312,-2.085933 1.63345,-0.746094 0.82097,1.791667 c 0.1543,0.33984 0.27799,0.674467 0.3776,0.999347 0.0931,0.327466 0.17514,0.64648 0.23438,0.959626 l 4.92513,1.785813 m 5.46615,3.510414 -1.56055,0.711586 -6.06967,-13.265626 1.56055,-0.71484 z"
           style="fill:#231f20;fill-opacity:1;fill-rule:nonzero;stroke:none;stroke-width:1.33333325"
           id="path114"
           inkscape:connector-curvature="0" /></g></g></g></g></svg>